<svg xmlns="http://www.w3.org/2000/svg" viewBox="0 0 675.4 233.5" enable-background="new 0 0 675.4 233.5"><style type="text/css">.st0{fill:#FAA31B;}</style><path class="st0" d="M82.6 174.1c6.1 0 11.4-2.1 16.1-6.4 4.6-4.2 7-9.8 7-16.8v-135.5h59.3v135.6c0 14.9-3.7 28.7-11.2 41.4-7.4 12.7-17.5 22.7-30.3 30.1-12.7 7.4-26.3 11.2-41 11.2-14.8 0-28.5-3.7-41.2-11.1-12.6-7.6-22.7-17.6-30.1-30.3-7.5-12.7-11.2-26.5-11.2-41.4 0-14.7 3.7-28.3 11.2-40.9 7.4-12.6 17.5-22.6 30.2-29.9 12.7-7.3 26.4-11 41.2-11l16.2 65.9c-1.5-1.9-3.9-3.5-7-4.8-3.1-1.3-6.2-1.9-9.3-1.9-4.1 0-7.9 1-11.4 3-3.6 1.9-6.4 4.6-8.5 8.1-2.1 3.5-3.2 7.3-3.2 11.4 0 6.6 2.3 12.1 6.8 16.5 4.5 4.6 10 6.8 16.4 6.8zM249.9 73.6v155.4h-59.4v-155.4h59.4zm-44.6-69.6c-4.5 2.7-8 6.3-10.6 10.9-2.6 4.6-3.8 9.8-3.8 15.4 0 5.5 1.3 10.6 3.8 15.2 2.6 4.6 6.1 8.3 10.6 10.9 4.4 2.8 9.4 4.2 14.8 4.2 8.3 0 15.3-2.9 20.9-8.8 5.6-5.8 8.5-13 8.5-21.5 0-8.6-2.8-15.8-8.5-21.6s-12.5-8.7-20.8-8.7c-5.4 0-10.4 1.3-14.9 4zM356.5 69.1c14.7 0 28.3 3.7 41 11s22.8 17.3 30.3 30c7.4 12.7 11.2 26.4 11.2 41.1s-3.7 28.5-11.2 41.1c-7.4 12.7-17.5 22.6-30.3 30-12.7 7.4-26.3 11.2-41 11.2-14.8 0-28.5-3.7-41.3-11.2-12.7-7.3-22.7-17.3-30.1-30-7.4-12.6-11.2-26.4-11.2-41.1s3.7-28.5 11.2-41.1c7.4-12.6 17.5-22.6 30.2-30 12.7-7.3 26.4-11 41.2-11zm0 59.4c-6.4 0-11.8 2.2-16.4 6.6-4.5 4.4-6.8 9.8-6.8 16.2 0 6.4 2.3 11.8 6.8 16.2 4.5 4.4 10 6.7 16.4 6.7 6.4 0 11.8-2.2 16.3-6.7 4.5-4.4 6.7-9.8 6.7-16.2 0-6.4-2.2-11.8-6.7-16.2-4.5-4.4-10-6.6-16.3-6.6zM518.1 15.4v213.6h-59.4v-213.6h59.4zM555.5 169.6c6.1 0 12.5-3.3 19.3-10 6.8-6.7 12.1-17.1 16.1-31.3 3.9-11.9 9.4-22.3 16.5-31.3s15.4-15.9 24.9-20.7c9.5-4.8 19.5-7.2 30.1-7.2h13v59.2h-12.7c-6.1 0-12.5 3.3-19.2 10-6.7 6.7-12 17.1-16 31.3-2.9 9-6.8 17.1-11.6 24.5-4.8 7.3-10.3 13.6-16.5 18.8-6.2 5.2-13 9.2-20.4 12-7.4 2.8-15.2 4.2-23.2 4.2h-13v-59.4h12.7z"/></svg>