<?xml version="1.0" encoding="UTF-8"?><!DOCTYPE svg PUBLIC "-//W3C//DTD SVG 1.1//EN" "http://www.w3.org/Graphics/SVG/1.1/DTD/svg11.dtd"><svg xmlns="http://www.w3.org/2000/svg" xmlns:xlink="http://www.w3.org/1999/xlink"><defs>
        <path id="a" d="M27 30V.9H0V30h27z"/>
    
        <path id="a" d="M22.087.541H.782v8.935h21.305V.54z"/>
    
        <path id="a" d="M10.468.923H.603v9.907h9.865V.923z"/>
        <path id="c" d="M.692 15h12.755V.03H.692V15z"/>
        <path id="e" d="M10 12.482V.026H.435v12.456H10z"/>
        <path id="g" d="M0 .026V9.8h9.563V.026H0z"/>
    
        <path id="a" d="M29 23V.4H0V23h29z"/>
    
        <path id="a" d="M29 .484H.994v26.829H29V.484z"/>
        <path id="c" d="M0 .208v13.119h13.451V.207H0z"/>
    
        <path id="a" d="M26.772 29H0V0h26.772v29z"/>
    </defs><symbol id="icon-auto" viewBox="0 0 29 26">
    <title>
        Page 1
    </title>
    <g fill-rule="evenodd">
        <path d="M.206 10.23a.955.955 0 0 1-.044-.986.97.97 0 0 1 .853-.506H15.41l12.079-.229c.274.001.56.116.75.332.188.215.27.502.225.783-.208 1.284-2.116.831-2.116.831l-10.92.207s-14.87.1-15.222-.433"/>
        <path d="M3.171 10.181a.963.963 0 0 1-.945-1.149c.131-.66 1.36-6.484 4.087-7.529C8.487.67 20.833.945 22.624 1.48c2.476.738 4.07 6.472 4.168 7.376a.962.962 0 0 1-1.912.21c-.135-1.236-1.75-5.427-2.806-5.742-1.609-.479-13.503-.625-15.073-.024-1.085.417-2.369 3.494-2.887 6.107a.963.963 0 0 1-.943.775"/>
        <path d="M26.643 9.236c-.005.07-.013.14-.022.21h.128s-.437 12-.739 13.726c-.405.085-1.388.224-3.686.321-.018-.219-.035-.45-.049-.642-.139-1.85-.198-2.633-1.065-2.633l-.044.001c-3.802.114-10.66.07-14.39-.097h-.063c-.858 0-.929.836-1.079 2.62-.016.19-.035.42-.055.636-1.962-.11-2.865-.229-3.267-.304-.263-1.724-.483-13.63-.483-13.63h.287l.005-.048c-1.297.083-2.076.182-2.075.3.125 14.14.655 14.706.946 15.018.285.304.553.592 5.298.82.93.04.985-.782 1.137-2.585.017-.203.038-.45.06-.68 3.604.13 9.285.167 12.941.086.02.231.037.478.052.682.137 1.827.195 2.602 1.061 2.601h.045c5.281-.176 5.54-.545 5.841-.972.478-.682.854-5.8 1.117-15.223.002-.084-.707-.153-1.9-.207"/>
        <path d="M7.131 13.642a1.766 1.766 0 0 0-.164-.311c-.078-.106-.152-.21-.235-.292a4.292 4.292 0 0 0-.297-.24 2.036 2.036 0 0 0-.307-.16 1.422 1.422 0 0 0-.342-.1 1.596 1.596 0 0 0-.728-.003c-.122.019-.223.05-.35.103a2.216 2.216 0 0 0-.33.17 2.257 2.257 0 0 0-.275.23 1.723 1.723 0 0 0-.23.284 1.724 1.724 0 0 0-.169.32c-.046.109-.084.23-.114.36a2.36 2.36 0 0 0-.036.355c0 .124.021.248.04.373.03.126.057.23.1.332.05.12.126.247.18.332.053.082.128.172.23.273.167.168.371.302.603.398.218.092.461.14.705.14.135 0 .26-.011.384-.03.092-.024.217-.062.332-.11.111-.037.208-.1.311-.164a2.33 2.33 0 0 0 .303-.244c.093-.094.166-.181.22-.264.06-.097.118-.208.17-.332.052-.127.083-.23.1-.331a1.68 1.68 0 0 0 .038-.373c0-.138-.012-.26-.035-.35a1.603 1.603 0 0 0-.104-.366"/>
        <path d="M24.386 13.642a1.766 1.766 0 0 0-.164-.311c-.078-.106-.152-.21-.235-.292a4.292 4.292 0 0 0-.297-.24 2.036 2.036 0 0 0-.307-.16 1.422 1.422 0 0 0-.342-.1 1.596 1.596 0 0 0-.728-.003c-.122.019-.223.05-.35.103a2.216 2.216 0 0 0-.33.17 2.257 2.257 0 0 0-.275.23 1.723 1.723 0 0 0-.23.284 1.724 1.724 0 0 0-.169.32c-.046.109-.084.23-.114.36a2.36 2.36 0 0 0-.036.355c0 .124.02.248.04.373.03.126.057.23.1.332.05.12.126.247.18.332.053.082.128.172.23.273.167.168.371.302.603.398.218.092.461.14.705.14.135 0 .26-.011.384-.03.092-.024.217-.062.332-.11.111-.037.208-.1.311-.164a2.33 2.33 0 0 0 .303-.244c.093-.094.166-.181.22-.264.06-.097.118-.208.17-.332.052-.127.083-.23.1-.331a1.68 1.68 0 0 0 .038-.373c0-.138-.012-.26-.035-.35a1.603 1.603 0 0 0-.104-.366"/>
        <path d="M27.398 7.57c.14.155.225.354.271.511-.4.042-1.008.093-1.507.124.22-.357.51-.787.714-1.06.166.102.366.25.522.424m1.056-.58c-.388-.43-1.252-1.038-1.84-.986-.352.03-.54.211-.929.741a15.43 15.43 0 0 0-.723 1.088c-.387.643-.45.856-.32 1.084.087.154.257.26.477.3.078.014.175.02.328.02.028 0 2.848-.077 3.271-.352.588-.383.134-1.454-.264-1.896"/>
        <path d="M2.05 7.145c.197.274.477.704.69 1.06a39.403 39.403 0 0 1-1.455-.123c.044-.158.126-.357.261-.512.151-.175.344-.323.504-.425M.272 8.885c.408.274 3.131.352 3.157.352h.001c.147 0 .241-.006.316-.021.212-.04.377-.146.461-.3.126-.227.065-.44-.309-1.084A15.855 15.855 0 0 0 3.2 6.744c-.375-.53-.557-.71-.896-.74-.569-.052-1.403.554-1.777.985C.143 7.43-.296 8.5.272 8.885"/>
        <path d="M19.984 18.061H8.06c-.34 0-.616-.354-.616-.79 0-.437.276-.792.616-.792h11.925c.34 0 .615.355.615.791 0 .437-.275.791-.615.791"/>
    </g>
</symbol><symbol id="icon-business" viewBox="0 0 27 30">
    <title>
        Page 1
    </title>
    
    <g fill-rule="evenodd">
        <path d="M11.593 24.306a.719.719 0 0 1-.718-.692c-.066-1.809-.079-3.786-.09-5.698-.014-1.901-.026-3.867-.092-5.653a.719.719 0 1 1 1.437-.053c.066 1.808.08 3.785.091 5.697.012 1.901.025 3.867.091 5.654a.72.72 0 0 1-.692.745h-.027"/>
        <path d="M9.266 22.02a.719.719 0 0 1-.078-1.433 81.033 81.033 0 0 1 7.76-.486h.012a.719.719 0 0 1 .01 1.437 79.796 79.796 0 0 0-7.624.477.537.537 0 0 1-.08.005"/>
        <path d="M11.817 13.436c.787.258 1.573.522 2.353.802 1.042.374 2.19.792 1.362 2.126-.944 1.52-3.857 2.077-5.42 1.398-1.05-.457-1.965 1.091-.906 1.551 2.66 1.157 6.787.295 8.152-2.49 1.63-3.33-2.82-4.383-5.063-5.12-1.102-.36-1.574 1.373-.478 1.733"/>
        <g transform="translate(0 -.9)">
            <mask id="b">
                <use xlink:href="#a"/>
            </mask>
            <path d="M6.778 3.17c.266.144.604.306.884.44 1.624.78 3.644 1.752 3.719 3.358.073 1.564-1.566 2.59-3.301 3.676-1.386.867-2.956 1.849-3.964 3.22-2.224 3.026-4.188 9.288.01 13.21 2.334 2.182 14.945 1.708 18.193.22 1.44-.66 2.178-2.062 2.54-3.123 1.02-2.968.505-7.04-1.253-9.901-1.497-2.438-3.106-3.191-4.526-3.856-1.162-.544-2.26-1.058-2.763-2.358-.988-2.55 1.78-4.375 3.449-5.32-1.066-.326-3.166-.6-4.294-.168-2.147.822-4.242.803-5.751-.055-.512-.292-1.777.008-2.943.658M12.542 30c-4.115 0-8.116-.536-9.594-1.918-4.886-4.566-2.793-11.483-.194-15.018 1.179-1.604 2.885-2.672 4.39-3.614 1.419-.888 2.644-1.654 2.608-2.421-.036-.777-1.737-1.594-2.862-2.135-1.223-.588-2.031-.976-2.09-1.683-.017-.2.024-.582.489-.893C6.504 1.504 8.988.37 10.597 1.284c1.045.595 2.589.575 4.233-.055 1.986-.76 6.267-.117 6.94 1.043.235.405.175.976-.486 1.34l-.155.085c-1.95 1.065-3.861 2.36-3.272 3.883.279.72.87 1.024 1.98 1.543 1.462.685 3.464 1.622 5.198 4.446 1.953 3.179 2.522 7.714 1.384 11.03-.654 1.906-1.815 3.286-3.357 3.992C21.265 29.414 16.84 30 12.542 30" mask="url(#b)"/>
        </g>
        <path d="M11.916 9.491a.72.72 0 0 1-.371-1.335c.372-.223.509-1.305.574-1.826.026-.199.121-1.21-.495-1.612a.72.72 0 0 1 .785-1.204c1.301.85 1.199 2.508 1.137 2.997-.154 1.21-.365 2.34-1.261 2.877a.71.71 0 0 1-.369.103"/>
        <path d="M13.698 7.394c-3.078 0-4.92-.358-5.027-.38-.472-.094-.761-.483-.645-.869.115-.386.592-.62 1.063-.527.048.01 3.539.676 8.918.105.482-.052.923.227.986.62.063.394-.278.755-.76.806a43.117 43.117 0 0 1-4.535.245"/>
        <path d="M9.16 28.538a.72.72 0 0 1-.355-.093c-1.978-1.122-3.184-3.752-3.235-3.864a.72.72 0 0 1 1.31-.593c.01.023 1.067 2.318 2.634 3.206a.718.718 0 0 1-.355 1.344"/>
        <path d="M16.947 26.98h-.001zm0 1.439a.72.72 0 0 1-.16-1.42c.36-.176 1.679-1.19 2.07-2.147a.718.718 0 1 1 1.33.545c-.58 1.42-2.543 3.022-3.24 3.022z"/>
    </g>
</symbol><symbol id="icon-electronics" viewBox="0 0 29 29">
    <title>
        Page 1
    </title>
    
    <g fill-rule="evenodd">
        <path d="M2.073 26.562c2.898.413 21.72.455 24.401.053.6-2.159 1.354-15.069.76-17.222-2.54-.55-22.438-.75-25.315-.258-.528 2.166-.412 15.161.154 17.427zm14.112 1.897c-.597 0-1.225-.001-1.887-.004-5.626-.021-12.479-.131-13.172-.536-.39-.229-.76-.446-.995-5.453-.128-2.739-.166-6.15-.098-8.903C.16 8.373.553 8.09.9 7.841H.9c.597-.429 5.19-.615 13.645-.546 12.815.101 13.492.65 13.746.857.337.274.756.614.704 5.662a126.309 126.309 0 0 1-.418 8.648c-.414 4.93-.759 5.198-1.062 5.434-.239.186-.723.563-11.33.563z"/>
        <path d="M4.369 11.809h.003-.003zm.546 4.1c2.303.1 16.498.11 18.82.01.227-.7.367-2.587.197-3.294-2.287-.143-16.657-.195-19.121-.067-.17.729-.112 2.634.104 3.352zm10.85 1.652l-1.42-.001c-2.21-.002-9.463-.02-10-.125-.31-.062-1.135-.224-1.2-3.29-.054-2.512.527-2.976 1.04-3.1.9-.216 19.56-.143 20.379.079.709.193 1.02.987 1.012 2.574-.008 1.278-.175 3.463-1.216 3.735-.325.085-3.215.128-8.595.128z"/>
        <path d="M5.22 22.002c.005.91.76 1.906 1.653 2.174.894.27 1.517-.217 1.809-.53.606-.65.812-1.62.51-2.415-.524-1.388-1.637-1.342-2.092-1.259-.914.17-1.884.94-1.88 2.03m2.156 3.82c-.317 0-.637-.046-.955-.142-1.547-.465-2.764-2.077-2.771-3.67-.007-1.707 1.353-3.247 3.164-3.582 1.702-.317 3.213.567 3.848 2.247.516 1.361.189 2.948-.831 4.042-.672.721-1.547 1.105-2.455 1.105"/>
        <path d="M21.185 22.799c.002.453.37.964.789 1.094.338.106.59-.062.74-.22.315-.33.428-.85.277-1.264-.173-.477-.477-.68-.901-.604-.447.08-.907.474-.905.994m.998 2.698c-.225 0-.452-.034-.677-.104-1.074-.335-1.887-1.447-1.892-2.587-.005-1.227.94-2.323 2.2-2.547 1.18-.211 2.219.422 2.653 1.612.353.97.106 2.13-.615 2.886-.461.483-1.055.74-1.67.74"/>
        <g transform="translate(2 -.54)">
            <mask id="b">
                <use xlink:href="#a"/>
            </mask>
            <path d="M1.568 9.476a.785.785 0 0 1-.275-1.522L21.027.59a.785.785 0 1 1 .549 1.472L1.842 9.426a.775.775 0 0 1-.274.05" mask="url(#b)"/>
        </g>
        <path d="M7.004 16.985a.785.785 0 0 1-.785-.785v-1.866a.784.784 0 1 1 1.57 0V16.2a.785.785 0 0 1-.785.785"/>
        <path d="M10.047 16.69a.785.785 0 0 1-.785-.784v-.884a.784.784 0 1 1 1.57 0v.884a.785.785 0 0 1-.785.785"/>
        <path d="M13.328 16.971h-.007a.786.786 0 0 1-.78-.793l.018-1.865a.797.797 0 0 1 .793-.778.785.785 0 0 1 .778.792l-.017 1.866a.786.786 0 0 1-.785.778"/>
        <path d="M16.374 16.704h-.007a.787.787 0 0 1-.78-.793l.009-.883a.786.786 0 0 1 .786-.778h.007a.784.784 0 0 1 .778.792l-.008.884a.786.786 0 0 1-.785.778"/>
        <path d="M19.317 17.02h-.008a.786.786 0 0 1-.779-.793l.017-1.865a.786.786 0 0 1 .787-.778h.006a.785.785 0 0 1 .779.792l-.017 1.866a.786.786 0 0 1-.785.778"/>
        <path d="M22.363 16.753h-.007a.787.787 0 0 1-.78-.793l.009-.883a.786.786 0 0 1 .786-.777h.007a.784.784 0 0 1 .778.791l-.008.885a.786.786 0 0 1-.785.777"/>
    </g>
</symbol><symbol id="icon-gift" viewBox="0 0 29 28">
    <title>
        Page 1
    </title>
    <g fill-rule="evenodd">
        <path d="M2.154 25.564c2.959.378 21.372.416 24.13.05.562-2.037 1.277-13.048.75-15.097-2.64-.5-22.085-.686-25.032-.24-.51 2.092-.4 13.111.152 15.287zm13.94 1.982c-.586 0-1.201 0-1.851-.004-5.583-.019-12.383-.123-13.076-.507-.427-.236-.83-.458-1.06-5.497a107.24 107.24 0 0 1-.066-7.69C.178 9.383.564 9.122.937 8.87c.599-.407 5.158-.58 13.552-.519 12.717.094 13.397.616 13.653.812.35.268.785.602.74 5.09a101.474 101.474 0 0 1-.412 7.76c-.42 4.498-.78 4.764-1.1 5-.24.175-.728.534-11.276.534z"/>
        <path d="M11.99 25.66l.011.037-.01-.037m-.798 1.107a.84.84 0 0 1-.797-.575c-.205-.614-.593-9.49-.883-16.829a.84.84 0 0 1 .806-.871.833.833 0 0 1 .873.805c.233 5.909.66 15.55.812 16.41a.84.84 0 0 1-.81 1.06"/>
        <path d="M18.096 9.552l-.014.045c.004-.012.01-.027.014-.045m-1.23 18.055h-.012a.84.84 0 0 1-.829-.851c.097-7.726.255-17.067.463-17.691a.84.84 0 1 1 1.611.474c-.14.912-.316 11.035-.394 17.238a.839.839 0 0 1-.839.83"/>
        <path d="M10.353 16.683h-.02c-.087-.002-8.61-.21-9.224-.21a.84.84 0 1 1 0-1.68c.634 0 8.912.201 9.264.21a.84.84 0 1 1-.02 1.68"/>
        <path d="M27.159 16.893h-9.873a.84.84 0 1 1 0-1.68h9.873a.84.84 0 0 1 0 1.68"/>
        <path d="M10.354 21.095l-.04-.001-9.242-.42a.84.84 0 0 1 .076-1.68l9.243.42a.84.84 0 0 1-.037 1.68"/>
        <path d="M27.579 21.095H17.075a.84.84 0 1 1 0-1.681h10.504a.84.84 0 0 1 0 1.68"/>
        <path d="M5.706 1.68a1.37 1.37 0 0 0-.908.313c-.608.508-.5.912-.46 1.064.327 1.243 2.86 2.962 7.671 4.062-1.457-2.563-3.873-4.893-5.714-5.359a2.44 2.44 0 0 0-.589-.08m7.798 7.44a.833.833 0 0 1-.149-.013C7.426 8.043 3.348 5.89 2.712 3.487 2.44 2.46 2.8 1.472 3.723.702 4.521.037 5.554-.16 6.707.132c3.053.771 6.31 4.668 7.577 7.836a.841.841 0 0 1-.78 1.152"/>
        <path d="M22.187 1.68a2.44 2.44 0 0 0-.59.08c-1.84.466-4.256 2.796-5.713 5.36 4.812-1.1 7.344-2.82 7.672-4.063.04-.152.147-.556-.461-1.064a1.37 1.37 0 0 0-.908-.313m-7.798 7.44a.838.838 0 0 1-.78-1.152C14.876 4.8 18.133.903 21.186.131 22.34-.16 23.372.037 24.17.702c.924.77 1.283 1.758 1.01 2.785-.635 2.402-4.713 4.556-10.642 5.62a.833.833 0 0 1-.15.013"/>
    </g>
</symbol><symbol id="icon-help" viewBox="0 0 29 27">
    <title>
        Page 1
    </title>
    
    <g fill-rule="evenodd">
        <g transform="translate(8 -.923)">
            <mask id="b">
                <use xlink:href="#a"/>
            </mask>
            <path d="M3.773 2.815c-.668.333-2.247 1.719-1.539 4.106.291.983.98 1.75 1.94 2.16.975.417 2.115.409 2.976-.025C9.052 8.1 9.357 5.583 8.732 4.27c-.41-.86-1.038-1.44-1.867-1.723-.949-.324-2.104-.224-3.092.268m1.901 8.015c-.699 0-1.41-.142-2.076-.427C2.235 9.819 1.256 8.727.841 7.327c-.884-2.98.88-5.1 2.28-5.798 1.33-.662 2.907-.79 4.218-.342 1.195.408 2.131 1.262 2.706 2.468.892 1.873.472 5.322-2.238 6.685a4.758 4.758 0 0 1-2.133.49" mask="url(#b)"/>
        </g>
        <g transform="translate(7 11.077)">
            <mask id="d">
                <use xlink:href="#c"/>
            </mask>
            <path d="M2.667 12.461c.125.435 1.41 1.063 3.878 1.098 2.813.042 4.61-.702 4.778-1.232 1.497-4.69.154-7.512-.78-8.776-.948-1.285-2.3-2.083-3.523-2.083-1.057 0-2.237.722-3.16 1.932-1.725 2.267-2.172 5.654-1.193 9.061m4.082 2.54l-.225-.003c-1.093-.016-4.7-.217-5.253-2.143C.15 8.96.673 5.197 2.7 2.533 3.914.943 5.487.03 7.02.03c1.704 0 3.46 1 4.695 2.672 1.098 1.483 2.684 4.763.993 10.061C12.178 14.42 9.218 15 6.748 15" mask="url(#d)"/>
        </g>
        <path d="M22.425 3.38h.004-.004zm.326.643c-.403.2-1.353 1.04-.92 2.5a2.04 2.04 0 0 0 1.178 1.31c.596.257 1.29.253 1.812-.01 1.16-.583 1.345-2.123.962-2.926-.249-.522-.627-.873-1.125-1.043-.582-.2-1.295-.136-1.907.169zm1.178 5.44a3.806 3.806 0 0 1-1.496-.308 3.46 3.46 0 0 1-1.995-2.226c-.638-2.151.644-3.685 1.661-4.192.954-.475 2.088-.566 3.032-.243.87.296 1.55.915 1.965 1.789.73 1.53.243 3.888-1.619 4.824a3.446 3.446 0 0 1-1.548.356z"/>
        <g transform="translate(19 10.077)">
            <mask id="f">
                <use xlink:href="#e"/>
            </mask>
            <path d="M5.183 1.465c-.584 0-1.278.438-1.855 1.172-1.099 1.397-1.958 4.135-1.07 7.629.078.312 1.032.755 2.617.776 1.794.03 3.094-.51 3.2-.886 1.19-4.218-.136-6.57-.76-7.386-.626-.817-1.423-1.305-2.132-1.305m-.197 11.017l-.13-.001c-2.22-.03-3.719-.726-4.007-1.864-.86-3.394-.362-6.708 1.334-8.865C3.046.655 4.14.026 5.183.026c1.16 0 2.39.7 3.288 1.874 1.597 2.086 1.963 5.236 1.003 8.643-.405 1.435-2.64 1.939-4.488 1.939" mask="url(#f)"/>
        </g>
        <path d="M2.987 3.38h.004-.004zm.326.643c-.403.2-1.353 1.04-.92 2.5a2.04 2.04 0 0 0 1.178 1.31c.596.257 1.29.253 1.812-.01 1.16-.583 1.345-2.123.962-2.926-.25-.522-.627-.873-1.125-1.043-.582-.2-1.295-.136-1.907.169zm1.178 5.44a3.802 3.802 0 0 1-1.496-.308A3.458 3.458 0 0 1 1 6.929c-.638-2.151.644-3.685 1.66-4.192.955-.475 2.089-.566 3.033-.243.869.296 1.549.915 1.965 1.789.729 1.53.243 3.888-1.62 4.824a3.45 3.45 0 0 1-1.547.356z"/>
        <g transform="translate(0 10.077)">
            <mask id="h">
                <use xlink:href="#g"/>
            </mask>
            <path d="M1.803 7.856h.004-.004zm-.007-.02c.16.19 1.107.525 2.792.526 1.842-.006 2.93-.416 3.08-.623.677-1.83.578-3.53-.29-4.766-.645-.916-1.678-1.508-2.634-1.508-.832 0-1.752.554-2.4 1.445-.56.77-1.376 2.432-.548 4.926zM4.51 9.8L4.336 9.8C3.056 9.779.843 9.558.426 8.31c-.763-2.274-.493-4.55.74-6.242C2.083.808 3.454.026 4.744.026 6.182.026 7.647.84 8.57 2.15c1.148 1.633 1.307 3.803.448 6.11-.53 1.425-3.55 1.54-4.508 1.54z" mask="url(#h)"/>
        </g>
    </g>
</symbol><symbol id="icon-home" viewBox="0 0 29 23">
    <title>
        Page 1
    </title>
    
    <g fill-rule="evenodd">
        <path d="M11.313 4.073h.004-.004zm3.168.05c-.98 0-1.968.23-2.841.642-.995.47-3.349 2.417-2.308 5.744.417 1.332 1.395 2.393 2.754 2.985 1.5.655 3.27.661 4.621.017 1.499-.715 2.181-1.937 2.49-2.836.443-1.294.391-2.805-.133-3.849-.957-1.903-2.755-2.703-4.583-2.703zm-.009 11.392a7.532 7.532 0 0 1-2.997-.619c-1.772-.772-3.052-2.168-3.603-3.93-1.223-3.908 1.193-6.677 3.114-7.585 3.157-1.49 7.54-1.03 9.444 2.758.711 1.414.793 3.343.214 5.032-.57 1.663-1.735 2.985-3.279 3.721-.871.415-1.872.623-2.893.623z"/>
        <g transform="translate(0 -.4)">
            <mask id="b">
                <use xlink:href="#a"/>
            </mask>
            <path d="M9.864 2.23h.004-.004zM1.79 21.25c2.757.424 22.504.174 25.454-.322.08-.384.198-1.398.223-4.047-.468-.093-1.247-.2-1.813-.279-2.5-.347-3.173-.44-3.175-1.279-.005-1.608-.033-3.25-.056-4.567-.012-.673-.022-1.258-.027-1.705a6.65 6.65 0 0 0-.682-2.898C19.425 1.6 14.07 1.09 10.191 2.921c-1.264.595-3.734 2.75-4.032 6.633-.037.47-.112 3.406-.094 6.279.006.835-.734.948-2.93 1.282-.496.076-1.173.178-1.597.267.051 2.51.175 3.494.251 3.869zM8.883 23c-7.66 0-7.994-.351-8.228-.598-.26-.276-.582-.616-.655-5.517-.012-.837.723-.949 2.904-1.28a35.104 35.104 0 0 0 1.63-.273c-.008-2.78.063-5.42.1-5.893.306-3.982 2.756-6.887 4.903-7.9C14.07-.603 20.357.045 23.08 5.465a8.184 8.184 0 0 1 .846 3.57c.004.444.014 1.024.026 1.694.021 1.182.046 2.622.054 4.072.474.095 1.277.206 1.858.287 2.476.341 3.141.434 3.137 1.272-.025 5.267-.37 5.534-.735 5.816-.187.145-.755.584-13.763.776-2.214.032-4.067.047-5.619.047z" mask="url(#b)"/>
        </g>
        <path d="M16.508 11.79c-.1 0-.203-.02-.3-.061-.022-.01-2.306-1.185-2.566-1.552-.18-.256-.209-.295-.22-4.393l-.002-.057a.765.765 0 0 1 .763-.767c.418.006.766.34.767.763v.056c.007 2.18.027 3.119.044 3.523.512.312 1.605.93 1.815 1.02a.763.763 0 0 1-.3 1.469"/>
        <path d="M21.794 19.027H6.975a.764.764 0 0 1 0-1.53h14.82a.766.766 0 0 1 0 1.53"/>
    </g>
</symbol><symbol id="icon-hot" viewBox="0 0 10.7 16">
    <path d="M10.5 4.4c-.3-.3-.8-.3-3 .2-.3.2-.7.3-1 .3l1.1-1.5C9.3 1.2 9.5.8 9.4.4c0-.1-.1-.3-.2-.3-.6-.4-5.7 1.1-6.1 1.3C2.3 1.9.1 8.3 0 9c0 .1 0 .3.2.5.3.3.6.2 2-.2.4-.1 1-.2 1.3-.3-.1.5-.3 1.2-.5 1.8-1.1 3.4-1.4 4.5-1 5 .1.1.2.2.4.2 2.2-.1 7.5-9.3 8.1-10.7.1-.3.3-.6 0-.9zM4.9 3l-1 1.8c-.5.8-.9 1.6-1.4 2.3 0 .1-.1.1-.2.2-.2.1-.3.1-.5 0-.3-.2-.3-.6-.2-.8.4-.7.9-1.4 1.3-2.2.4-.6.8-1.3 1.1-1.9.2-.2.5-.3.7-.2.3.2.4.5.2.8z"/>
</symbol><symbol id="icon-lift-up" viewBox="0 0 15.4 14">
    <path class="st1" d="M15.2 1.7c-.2-.1-.6-.4-7.5 1.4C4.6 3.9.8 4.9 0 5.3c-.1 0-.3.2-.3.4-.1.5.4.8 3.7 1.7.4.1 1 .3 1.1.4.1.1.3.5.5.8C7.3 12.2 8 13 8.5 13h.1c.2 0 .4-.1 1.5-1.6.6-.9 1.4-2 2.2-3.2.9-1.4 3-4.8 3.2-5.9 0-.4-.2-.5-.3-.6zm-.5 1c-3.8 1.8-7.3 3.6-9.6 5-.1 0-.2.1-.2.1-.1 0-.3-.1-.4-.2-.1-.2 0-.5.2-.6 2.3-1.3 5.8-3.2 9.6-5 .2-.1.4 0 .5.2.1.2.1.4-.1.5zm-9.8 9.6h-.2c-.1-.1-.2-.1-.2-.3-.2-.8-.2-4.3-.2-4.3 0-.2.2-.4.4-.4s.4.2.4.4c0 1.1 0 2.7.1 3.6l.3-.2 1.1-.5c.2-.1.4 0 .6.1.1.2 0 .4-.1.6l-1.1.6c-.4.1-.6.2-1 .4h-.1z"/>
</symbol><symbol id="icon-mark" viewBox="0 0 11.3 15.4">
    <path class="st3" d="M4.7 5.2C.4 5.2.3 5 .2 4.8-.1 4.3 0 .8.2.4.3.2.4.1 2.6 0h4.2c2.5.1 2.5.2 2.7.4.3.4.2 3.9 0 4.3-.2.3-.3.5-4.8.5zm4.1-.8zM.7 4.3"/>
    <path class="st3" d="M8.9 4.3zm0-3.3zM4.2 14.8zm1.8 0zm.7-4.3c-.1-1.1-.9-1.7-1.6-1.7-.7 0-1.5.5-1.6 1.7 0 .2-.1 1.3-.1 2.3 0 2.3 0 2.3.3 2.5.2.1.8.1 1.4.1.6 0 1.2 0 1.4-.1.2-.1.3-.2.3-2.5 0-1-.1-2.1-.1-2.3zM6 14.6H4.2c-.1-.8 0-3.7.1-4 .1-.8.5-1 .8-1 .4 0 .8.3.9 1 0 .4.1 3.2 0 4zm.2 0zm-1-5c-.2 0-.4-.1-.4-.3-.4-2.1-.2-2.3 0-2.4.2-.2.3-.2 2.8-.1 1 0 2.4.1 2.8 0 .1-.7.2-3.3.1-4-.2-.1-.7-.1-1.2 0-.2 0-.4-.1-.4-.3 0-.3.1-.5.4-.5 1.7-.2 1.9.3 2 .4.1.3.1 2.1.1 2.4-.1 2.2-.2 2.4-.3 2.5-.2.2-.5.2-3.4.2-.8 0-1.8-.1-2.2 0 0 .3.1 1.1.2 1.7-.1.2-.3.4-.5.4zm.2-2.3"/>
</symbol><symbol id="icon-personal" viewBox="0 0 29 29">
    <title>
        Page 1
    </title>
    <g fill-rule="evenodd">
        <path d="M22.053 1.849c-.749 0-1.476.28-2.172.843-2.465 1.992-2.556 7.753-2.61 11.195l-.01.638c-.013.702-.081 1.534-.153 2.415-.258 3.167-.611 7.505 1.449 8.903 2.216 1.506 4.451-1.515 5.084-2.477 2.577-3.926 4.576-11.44 3.444-16.37v-.001c-.493-2.147-2.077-4.203-3.768-4.887a3.35 3.35 0 0 0-1.264-.26m-2.238 26.209c-.691 0-1.394-.206-2.09-.68-2.916-1.98-2.511-6.962-2.215-10.6.07-.85.135-1.65.147-2.29l.01-.631c.059-3.78.159-10.102 3.275-12.62C20.457.014 22.159-.27 23.863.42c2.187.885 4.151 3.405 4.776 6.129 1.245 5.423-.911 13.623-3.706 17.88-1.276 1.943-3.143 3.628-5.118 3.628"/>
        <path d="M18.728 12.387a.802.802 0 0 1-.067-1.602c1.8-.152 2.661-2.898 2.887-4.497a.803.803 0 0 1 1.589.225c-.38 2.693-1.72 5.65-4.34 5.87a.796.796 0 0 1-.069.004"/>
        <path d="M24.982 14.888a.809.809 0 0 1-.334-.073c-2.809-1.29-3.513-5.649-3.117-8.332a.802.802 0 0 1 1.587.234c-.318 2.155.282 5.76 2.2 6.64a.803.803 0 0 1-.336 1.531"/>
        <path d="M1.133 6.733h.004-.004zM6.94 1.797a3.35 3.35 0 0 0-1.271.263c-1.69.687-3.27 2.746-3.76 4.895-1.123 4.932.889 12.442 3.471 16.362.635.96 2.873 3.978 5.088 2.467 2.058-1.403 1.697-5.74 1.434-8.906-.072-.881-.142-1.713-.157-2.415l-.01-.638c-.06-3.442-.16-9.203-2.63-11.19-.694-.558-1.418-.838-2.165-.838zM9.207 28c-1.972 0-3.838-1.68-5.117-3.618C1.29 20.132-.88 11.937.356 6.51c.62-2.725 2.58-5.25 4.766-6.138 1.702-.694 3.405-.415 4.921.806 3.122 2.51 3.23 8.833 3.296 12.61l.011.633c.014.639.08 1.44.152 2.29.301 3.637.715 8.619-2.197 10.605-.698.476-1.405.684-2.098.684z"/>
        <path d="M10.275 12.334a.768.768 0 0 1-.066-.003c-2.621-.216-3.967-3.17-4.353-5.863a.802.802 0 0 1 1.588-.227c.23 1.598 1.096 4.343 2.897 4.49a.802.802 0 0 1-.066 1.603"/>
        <path d="M4.028 14.848a.803.803 0 0 1-.337-1.532c1.915-.883 2.507-4.489 2.184-6.644a.802.802 0 0 1 1.587-.236c.402 2.682-.294 7.043-3.1 8.338a.784.784 0 0 1-.334.074"/>
    </g>
</symbol><symbol id="icon-pets" viewBox="0 0 29 27">
    <title>
        Page 1
    </title>
    <g fill-rule="evenodd">
        <path d="M13.344 14.782v.001-.001M11.398 16.3a.73.73 0 0 1-.723-.807c.107-1.037 1.378-1.783 2.246-1.981 1.062-.244 1.513.273 1.657.507a.726.726 0 0 1-1.148.876c-.385-.006-1.23.468-1.314.76a.719.719 0 0 1-.718.645"/>
        <path d="M20.465 16.293a.726.726 0 0 1-.72-.652c-.02-.088-.217-.34-.604-.565-.364-.21-.672-.269-.8-.262a.725.725 0 0 1-1.237-.754c.297-.56.936-.803 1.711-.65.928.185 2.27 1.012 2.373 2.088a.726.726 0 0 1-.723.795"/>
        <path d="M13.209 20.677c-.77 0-1.504-.244-1.903-1.163a.726.726 0 0 1 1.33-.578c.155.354.479.378 1.736.13.5-.1 1.019-.201 1.53-.201.559 0 1.05.109 1.484.206.926.208 1.348.302 1.994-.51a.725.725 0 1 1 1.136.903c-1.212 1.523-2.45 1.246-3.447 1.023-.395-.088-.768-.171-1.167-.171-.37 0-.817.088-1.25.173-.443.088-.95.188-1.443.188"/>
        <path d="M15.578 7.604c-3.274 0-4.86 3.785-5.521 6.093a.72.72 0 0 1-.211.338c-1.55 1.402-.826 5.03-.388 5.8.968 1.7 2.849 2.81 5.162 3.048 2.868.293 5.699-.8 7.569-2.926.554-.63 1.387-4.49-.352-6.264a.724.724 0 0 1-.166-.266c-.728-2.062-2.445-5.56-5.764-5.811a4.583 4.583 0 0 0-.33-.012M15.54 24.38c-.355 0-.711-.017-1.068-.054-2.785-.285-5.072-1.66-6.275-3.772-.597-1.048-1.55-5.33.52-7.445 1.386-4.66 4.038-7.186 7.3-6.94 3.032.229 5.503 2.582 6.97 6.629 2.146 2.372 1.326 6.943.292 8.118-1.946 2.21-4.78 3.464-7.74 3.464"/>
        <path d="M5.256 26.474c-1.065 0-1.758-.267-2.063-.795-.214-.373-.193-.827.058-1.246 1.118-1.866 3.256-5.075 5.018-5.61a.726.726 0 1 1 .421 1.389c-.867.263-2.488 2.162-4.067 4.756.379.079 1.155.098 2.168-.136 1.749-.404 3.13-1.271 3.695-2.321a.726.726 0 1 1 1.278.688c-1.258 2.336-4.602 3.248-6.414 3.274h-.094"/>
        <path d="M27.563 25.194h.004-.005zm-.845 1.251c-2.244 0-5.62-1.109-6.994-3.05a.725.725 0 1 1 1.183-.839c1.384 1.953 5.35 2.656 6.51 2.397-1.58-2.592-3.194-4.48-4.058-4.742a.726.726 0 1 1 .421-1.389c1.762.535 3.9 3.745 5.018 5.611.366.609.226 1.27-.348 1.644-.383.249-.997.368-1.732.368z"/>
        <path d="M8.343 15.418a.726.726 0 0 1-.718-.625c-.17-1.207-.488-1.994-.948-2.34-.526-.392-1.344-.272-2.29-.132-1.285.189-2.884.426-4.162-.791a.727.727 0 0 1-.203-.702c.51-2.042 3.002-4.734 5.564-4.833C5.833 3.635 7.613.89 10.3.034a.725.725 0 0 1 .75.197c1.189 1.274 1.307 2.966 1.412 4.458.065.934.126 1.816.42 2.532a.726.726 0 1 1-1.341.553c-.384-.934-.457-1.976-.527-2.984-.083-1.194-.163-2.33-.733-3.197-2.013.91-3.368 3.356-3.27 5.139a.728.728 0 0 1-.866.75c-1.762-.35-3.902 1.645-4.57 3.262.713.42 1.598.289 2.599.14 1.107-.162 2.362-.347 3.372.409.803.6 1.285 1.649 1.515 3.299a.725.725 0 0 1-.72.826"/>
        <path d="M8.828 5.442a.725.725 0 0 1-.677-.466l-.605-1.571A.726.726 0 0 1 8.9 2.884l.605 1.572a.725.725 0 0 1-.677.986"/>
        <path d="M4.958 9.795l-.037-.001-2.418-.121a.726.726 0 0 1 .072-1.449l2.42.121a.726.726 0 0 1-.037 1.45"/>
        <path d="M6.53 26.241a.726.726 0 0 1-.672-1l.665-1.632a.726.726 0 0 1 1.344.547l-.665 1.633a.727.727 0 0 1-.672.452"/>
        <path d="M15.78 10.46a.726.726 0 0 1-.725-.726V3.75a.726.726 0 1 1 1.452 0v5.985a.726.726 0 0 1-.726.726"/>
    </g>
</symbol><symbol id="icon-property" viewBox="0 0 29 29">
    <title>
        Page 1
    </title>
    <g fill-rule="evenodd">
        <path d="M1.482 1.152h.004-.004zm.486 25.833c2.345.213 12.016.307 14.439.049.242-3.531.469-21.623.178-24.894-2.283-.294-12.053-.447-14.368-.224-.417 3.21-.598 21.599-.25 25.069zM10.138 29c-.6 0-1.107-.003-1.453-.005-7.363-.051-7.746-.322-7.975-.484-.443-.313-.793-.562-.692-13.825C.117 1.593.572.906.743.646c.269-.405.739-.461 1.082-.501C3.229-.02 7.269-.026 10.428.037c6.934.14 7.249.437 7.527.7.362.342.648.612.514 13.857-.132 12.97-.384 13.447-.467 13.604-.21.396-.612.493-.744.525-.983.238-4.764.277-7.12.277z"/>
        <path d="M5.214 8c.468.01 1.076.017 1.546.015.019-.592.032-1.417.028-1.997a57.33 57.33 0 0 0-1.551-.016A40.28 40.28 0 0 0 5.214 8m1.54 1.798c-.214 0-.461-.002-.75-.005-1.747-.014-1.825-.053-2.013-.146a.928.928 0 0 1-.503-.7c-.006-.033-.271-3.811.304-4.415v-.001c.303-.316.504-.323 2.23-.308 1.797.018 1.866.063 2.093.213a.93.93 0 0 1 .407.646c.006.033.19 3.792-.212 4.322-.26.34-.461.394-1.556.394"/>
        <path d="M18.797 9.966v0zm-.382 17.085v.001zm3.95 1.84c-2.352 0-4.639-.095-5.036-.405a.914.914 0 0 1-.162-1.269.881.881 0 0 1 1.028-.292c.883.16 6.915.234 8.84.084.137-2.8.263-13.95.113-16.586-1.815-.186-7.73-.273-8.744-.103a.88.88 0 0 1-.83-.05.913.913 0 0 1-.298-1.244c.254-.425.717-.479.993-.51.962-.11 3.423-.114 5.434-.068 4.412.101 4.608.305 4.88.588.32.334.48.501.394 9.69-.082 8.954-.233 9.27-.315 9.438-.132.277-.375.46-.723.542-.285.068-2.969.185-5.574.185z"/>
        <path d="M22.102 15.761c.468.01 1.078.016 1.548.013.018-.562.03-1.33.027-1.882a61.819 61.819 0 0 0-1.552-.015c-.024.55-.032 1.328-.023 1.884m1.538 1.797c-.212 0-.46-.002-.746-.004-1.742-.015-1.82-.05-2.005-.14a.927.927 0 0 1-.512-.705c-.006-.034-.29-3.699.313-4.313l.002-.002c.3-.306.474-.314 2.22-.296 1.79.017 1.858.06 2.083.204a.933.933 0 0 1 .417.655c.006.033.202 3.681-.222 4.221-.26.328-.46.38-1.55.38"/>
        <path d="M21.326 19.98h.004-.004zm.776 2.743c.468.009 1.078.015 1.548.013.018-.562.03-1.331.027-1.882a53.718 53.718 0 0 0-1.553-.016c-.023.55-.031 1.328-.022 1.885zm1.538 1.797c-.213 0-.459-.003-.746-.005-1.742-.014-1.819-.051-2.005-.14a.927.927 0 0 1-.513-.705c-.006-.034-.287-3.7.315-4.313.301-.307.471-.314 2.221-.298 1.79.018 1.858.06 2.083.205a.93.93 0 0 1 .417.655c.005.032.202 3.68-.222 4.22-.259.328-.46.38-1.55.38z"/>
        <path d="M11.056 5.148h.004-.004zm.777 2.967c.467.01 1.076.017 1.545.014.018-.62.033-1.502.028-2.11a50.063 50.063 0 0 0-1.55-.016 41.212 41.212 0 0 0-.023 2.112zm1.528 1.798c-.212 0-.455-.002-.737-.005-1.753-.015-1.833-.055-2.024-.152a.928.928 0 0 1-.493-.692c-.006-.035-.27-3.906.294-4.52.304-.328.507-.338 2.242-.32 1.802.019 1.877.07 2.102.222.147.1.336.292.396.639.006.034.186 3.894-.205 4.424-.257.349-.487.404-1.575.404z"/>
        <path d="M4.437 12.335h.004-.004zm.776 2.742c.468.01 1.078.016 1.548.013.018-.562.03-1.331.027-1.882a61.921 61.921 0 0 0-1.552-.016c-.024.55-.032 1.328-.023 1.885zm1.537 1.797c-.212 0-.458-.002-.745-.005-1.741-.014-1.818-.05-2.003-.138a.932.932 0 0 1-.515-.71c-.006-.033-.284-3.701.315-4.31.3-.307.472-.314 2.22-.298 1.79.018 1.857.06 2.082.204.158.1.357.295.419.656.005.032.19 3.694-.221 4.219-.26.329-.46.382-1.552.382z"/>
        <path d="M11.056 12.337h.004-.004zm.777 2.967c.467.01 1.076.017 1.545.014.018-.62.033-1.502.028-2.11a50.103 50.103 0 0 0-1.55-.016 41.212 41.212 0 0 0-.023 2.112zm1.528 1.798c-.212 0-.455-.002-.737-.004-1.753-.015-1.833-.056-2.024-.153a.927.927 0 0 1-.493-.691c-.006-.036-.27-3.911.295-4.522.304-.327.505-.336 2.24-.318 1.802.018 1.877.069 2.102.22a.94.94 0 0 1 .397.64c.006.034.186 3.894-.205 4.424-.257.349-.487.404-1.575.404z"/>
        <path d="M5.213 22.38c.469.01 1.078.016 1.548.013.018-.562.03-1.33.027-1.882a53.612 53.612 0 0 0-1.552-.016 36.942 36.942 0 0 0-.023 1.885m1.536 1.797c-.212 0-.457-.002-.744-.004-1.742-.015-1.82-.05-2.005-.14a.933.933 0 0 1-.513-.708c-.006-.034-.284-3.7.314-4.31.303-.308.474-.315 2.223-.298 1.788.017 1.856.06 2.08.203a.93.93 0 0 1 .419.656c.006.032.19 3.692-.22 4.218-.261.331-.462.383-1.554.383"/>
        <path d="M11.056 19.64h.004-.004zm.777 2.967c.467.011 1.076.014 1.545.014.018-.62.033-1.502.028-2.11a53.442 53.442 0 0 0-1.55-.016 41.212 41.212 0 0 0-.023 2.112zm1.528 1.798c-.212 0-.455-.002-.737-.005-1.753-.014-1.833-.055-2.024-.152a.928.928 0 0 1-.493-.692c-.006-.035-.27-3.91.295-4.52.303-.328.503-.337 2.24-.32 1.803.02 1.878.07 2.103.222.147.1.336.292.396.64.006.033.186 3.893-.205 4.423-.257.35-.487.404-1.575.404z"/>
    </g>
</symbol><symbol id="icon-services" viewBox="0 0 29 29">
    <title>
        Page 1
    </title>
    
    <g fill-rule="evenodd">
        <g transform="translate(0 -.484)">
            <mask id="b">
                <use xlink:href="#a"/>
            </mask>
            <path d="M2.534 22.645c-.125.76.4 1.867 1.246 2.593.403.345.97.65 1.39.518.518-.45 3.413-3.225 5.981-5.686 8.474-8.122 8.473-8.122 8.932-8.098.15.008.321.049.606.119.952.23 3.184.772 4.356-.275 1.577-1.41 2.407-3.284 2.434-3.735-.085-.242-.52-.722-.797-.896-.49.399-1.694 1.713-2.649 2.85a.763.763 0 0 1-.807.24l-2.48-.761a.766.766 0 0 1-.51-.522l-.702-2.495a.763.763 0 0 1 .203-.753c1.087-1.055 2.328-2.372 2.734-2.94-.218-.268-.642-.665-.864-.791-.558.079-2.346.944-3.737 2.343-1.12 1.127-.537 3.855-.218 4.812a.76.76 0 0 1-.236.827c-5.31 4.4-13.855 11.566-14.882 12.65zm2.415 4.668c-.702 0-1.453-.313-2.16-.92-1.16-.993-2.114-2.786-1.694-4.288.082-.291.205-.73 14.962-12.962-.328-1.228-.9-4.218.733-5.861 1.646-1.655 3.893-2.798 4.9-2.798h.016c.828.012 2.143 1.42 2.34 2.037.128.404.273.86-2.923 3.999l.467 1.659 1.602.492c2.516-2.953 3.028-3.02 3.28-3.052 1.055-.14 2.307 1.333 2.498 2.14.255 1.082-1.187 3.654-2.91 5.194-1.769 1.579-4.545.906-5.73.618l-.092-.023c-1.023.904-5.034 4.748-8.033 7.622-6.086 5.833-6.129 5.852-6.337 5.946-.29.132-.6.197-.919.197z" mask="url(#b)"/>
        </g>
        <path d="M26.124 23.273h.004-.004zm-9.58-1.633c1.014 1.187 4.98 4.84 5.839 5.352.907-.096 3.57-2.906 3.732-3.751-.323-.966-4.523-4.654-5.654-5.27-.803.387-3.177 2.728-3.916 3.669zm5.769 6.876a1.4 1.4 0 0 1-.207-.015c-.228-.032-.702-.1-3.942-3.112-3.328-3.094-3.304-3.431-3.278-3.79.063-.881 3.274-3.874 4.299-4.611.689-.495 1.142-.653 1.56-.545.857.222 6.734 4.919 6.892 6.666.119 1.3-2.12 3.467-2.375 3.71-1.186 1.127-2.177 1.697-2.95 1.697z"/>
        <path d="M23.04 23.466a.76.76 0 0 1-.482-.171l-3.067-2.504a.76.76 0 1 1 .962-1.18l3.069 2.503a.763.763 0 0 1-.482 1.352"/>
        <path d="M16.109 20.497a.757.757 0 0 1-.53-.215l-1.823-1.766a.762.762 0 0 1 1.06-1.094l1.823 1.766a.761.761 0 0 1-.53 1.31"/>
        <g transform="translate(0 1.516)">
            <mask id="d">
                <use xlink:href="#c"/>
            </mask>
            <path d="M10.272 13.327a.757.757 0 0 1-.53-.215l-5.625-5.45-1.858-.46a.765.765 0 0 1-.47-.35C-.23 3.479-.06 3.072.072 2.746.304 2.183 2.113.425 2.653.235c.763-.265 4.04 1.452 4.293 1.94.04.078.146.282.582 2.103l5.686 5.406a.76.76 0 1 1-1.049 1.103l-5.85-5.561a.757.757 0 0 1-.217-.376 47.07 47.07 0 0 0-.475-1.866c-.49-.312-1.966-1.032-2.555-1.23a13.758 13.758 0 0 0-1.49 1.455c.181.483.78 1.605 1.358 2.59l1.746.434a.76.76 0 0 1 .347.193l5.773 5.592a.761.761 0 0 1-.53 1.309" mask="url(#d)"/>
        </g>
        <path d="M18.5 18.037a.763.763 0 0 1-.524-.21l-1.757-1.671a.76.76 0 1 1 1.049-1.103l1.758 1.67a.76.76 0 0 1-.525 1.314"/>
    </g>
</symbol><symbol id="icon-sport" viewBox="0 0 27 29">
    <title>
        Page 1
    </title>
    
    <g fill-rule="evenodd">
        <mask id="b">
            <use xlink:href="#a"/>
        </mask>
        <path d="M1.934 21.236c1.175 1.152 10.651 5.742 11.974 6.091 1.262-.226 9.7-4.366 10.907-5.345.381-1.64.32-13.085.151-14.865-1.383-1.098-10.484-5.23-11.664-5.444-1.36.154-10.176 4.433-11.496 5.391-.234 1.771-.139 12.608.128 14.172zM13.82 29a.648.648 0 0 1-.065-.003c-1.03-.114-6.819-3.01-6.877-3.04C.704 22.861.492 22.227.367 21.848.026 20.832-.223 7.305.298 6.262.876 5.11 12.02.001 13.32.001c.925 0 5.49 2.098 6.866 2.74 6.11 2.855 6.261 3.389 6.373 3.778.233.817.213 8.01.213 8.082-.028 7.588-.36 8.054-.56 8.332C25.572 23.828 15.437 29 13.82 29z" mask="url(#b)"/>
        <path d="M13.219 13.173a.814.814 0 0 1-.351-.072C12.303 12.875 1.877 7.95.69 7.39a.836.836 0 0 1 .713-1.51c4.353 2.056 10.837 5.109 11.942 5.607 1.247-.225 8.187-2.911 8.973-3.347a.843.843 0 0 1 1.137.308.827.827 0 0 1-.285 1.128c-.424.254-3.175 1.347-4.915 2.006-3.468 1.313-4.563 1.59-5.036 1.59z"/>
        <path d="M13.557 24.201a.834.834 0 0 1-.835-.83l-.044-10.596a.835.835 0 0 1 .83-.839h.005c.459 0 .833.372.834.831l.045 10.595a.835.835 0 0 1-.832.84h-.003z"/>
        <path d="M6.306 16.283h.004-.004zm.403.737c.018.014.05.02.066.016-.006.001-.01-.01-.011-.025a.26.26 0 0 0-.055.01zm.053 1.686c-.241 0-.484-.049-.71-.147a1.665 1.665 0 0 1-.936-1.042 1.647 1.647 0 0 1 .826-1.985c.782-.379 1.869-.207 2.332.743.351.72.119 1.825-.774 2.264a1.68 1.68 0 0 1-.738.167z"/>
        <path d="M17.625 15.37c.017.015.05.02.067.017-.009 0-.012-.01-.012-.024a.197.197 0 0 0-.055.008m.053 1.686c-.24 0-.485-.048-.71-.147a1.665 1.665 0 0 1-.936-1.042 1.65 1.65 0 0 1 .825-1.984v-.001c.783-.38 1.87-.206 2.334.744.35.718.119 1.825-.774 2.263a1.669 1.669 0 0 1-.739.167"/>
        <path d="M8.8 5.92h.004H8.8zm.404.737c.017.013.05.02.065.016-.008-.003-.01-.01-.01-.025a.196.196 0 0 0-.055.01zm.052 1.686c-.24 0-.484-.049-.71-.147a1.666 1.666 0 0 1-.936-1.042 1.65 1.65 0 0 1 .825-1.985c.783-.38 1.87-.207 2.333.744.351.718.12 1.824-.774 2.263a1.683 1.683 0 0 1-.738.167z"/>
        <path d="M13.591 4.611c.017.014.05.02.066.016-.008.001-.01-.01-.01-.024a.197.197 0 0 0-.056.008m.053 1.686c-.24 0-.485-.048-.71-.147a1.67 1.67 0 0 1-.937-1.042 1.649 1.649 0 0 1 .825-1.984c.784-.38 1.87-.207 2.334.743.35.718.12 1.825-.774 2.263a1.669 1.669 0 0 1-.738.167"/>
        <path d="M13.66 8.563c.017.014.05.018.066.016-.013 0-.01-.01-.011-.024a.197.197 0 0 0-.055.008m.052 1.687c-.241 0-.484-.049-.71-.148a1.67 1.67 0 0 1-.936-1.042 1.65 1.65 0 0 1 .825-1.984c.783-.38 1.87-.207 2.334.743.35.718.119 1.824-.774 2.263a1.67 1.67 0 0 1-.74.168"/>
        <path d="M17.644 5.781h.004-.004zm.403.737c.017.013.05.02.066.016-.008-.002-.01-.01-.011-.025a.202.202 0 0 0-.055.01zm.053 1.686c-.241 0-.485-.049-.711-.147a1.666 1.666 0 0 1-.935-1.042 1.647 1.647 0 0 1 .824-1.984 1.858 1.858 0 0 1 1.206-.15c.5.108.9.426 1.128.893.351.718.119 1.824-.774 2.263a1.683 1.683 0 0 1-.738.167z"/>
        <path d="M21.543 19.103c.017.013.049.02.066.016-.01-.002-.011-.01-.011-.024a.197.197 0 0 0-.055.008m.053 1.686c-.241 0-.484-.048-.71-.147a1.667 1.667 0 0 1-.937-1.042 1.649 1.649 0 0 1 .825-1.984v-.001c.784-.38 1.87-.206 2.334.744.35.719.118 1.825-.774 2.263a1.669 1.669 0 0 1-.738.167"/>
    </g>
</symbol><symbol id="icon-top" viewBox="0 0 15.4 14">
    <path class="st1" d="M15.2 1.7c-.2-.1-.6-.4-7.5 1.4C4.6 3.9.8 4.9 0 5.3c-.1 0-.3.2-.3.4-.1.5.4.8 3.7 1.7.4.1 1 .3 1.1.4.1.1.3.5.5.8C7.3 12.2 8 13 8.5 13h.1c.2 0 .4-.1 1.5-1.6.6-.9 1.4-2 2.2-3.2.9-1.4 3-4.8 3.2-5.9 0-.4-.2-.5-.3-.6zm-.5 1c-3.8 1.8-7.3 3.6-9.6 5-.1 0-.2.1-.2.1-.1 0-.3-.1-.4-.2-.1-.2 0-.5.2-.6 2.3-1.3 5.8-3.2 9.6-5 .2-.1.4 0 .5.2.1.2.1.4-.1.5zm-9.8 9.6h-.2c-.1-.1-.2-.1-.2-.3-.2-.8-.2-4.3-.2-4.3 0-.2.2-.4.4-.4s.4.2.4.4c0 1.1 0 2.7.1 3.6l.3-.2 1.1-.5c.2-.1.4 0 .6.1.1.2 0 .4-.1.6l-1.1.6c-.4.1-.6.2-1 .4h-.1z"/>
</symbol><symbol id="icon-vip" viewBox="0 0 12.8 16">
    <path class="st2" d="M3 16h-.2c-.1-.1-.2-.2-.2-.4-.1-2.2 0-3.1.1-5.3 0-.2.2-.4.4-.4s.4.2.4.4c-.1 1.9-.2 2.8-.2 4.4 1-.6 2.5-1.6 2.8-1.7.2 0 .4.1 1.3.6.4.3 1.2.7 1.7 1-.5-1.6-.6-2.2-.6-4.2 0-.2.2-.4.4-.4s.4.2.4.4c0 2.2.1 2.6.8 4.7v.3c-.1.1-.1.2-.3.2-.5.1-1.2-.3-2.9-1.3-.3-.2-.6-.4-.8-.5-.5.3-2.2 1.3-3 1.9 0 .3 0 .3-.1.3zm3.3-2"/>
    <path class="st2" d="M4.6 3.5c-.6.3-2 1.4-1.4 3.4.2.8.8 1.4 1.6 1.8.9.4 2 .4 2.8 0 .9-.4 1.3-1.2 1.5-1.7.3-.8.2-1.7-.1-2.3C8.1 3 6.1 2.8 4.6 3.5zm8.1 2c-.1-.2-1-1.2-1.4-1.7l-.8-2c-.1-.1-.2-.2-.3-.2-.8-.1-1.9-.2-2.1-.3C7.8 1 6.5 0 6.1 0 6 0 5.7 0 3.8 1.2l-2.4.7c-.2 0-.3.2-.3.4L1 4c-.1.1-.3.5-.5.8-.4.8-.7 1.2-.3 1.5.2.2 1 1.6 1 1.8 0 .1.2 1.2.4 2.2 0 .2.2.3.4.3h2.2C5.6 11.7 6 12 6.2 12h.1c.1 0 .3-.1 1.1-.6l1.2-.6c.2 0 1.2 0 1.9.1.2 0 .4-.1.4-.3.1-1 .3-2.2.4-2.4.1-.1.4-.6.7-1.1.8-1.2.9-1.4.7-1.6zM9.9 7.3c-.4.9-1 1.7-1.9 2.1-.6.3-1.1.4-1.7.4-.6 0-1.2-.1-1.7-.4C3.5 9 2.7 8.2 2.4 7.2c-.7-2.3.7-3.9 1.8-4.5 1.8-.9 4.4-.6 5.5 1.6.5.9.5 2 .2 3z"/>
</symbol><symbol id="icon-work" viewBox="0 0 29 29">
    <path d="M25.523 21.086c-1.912-2.939-7.293-4.477-11.62-4.477-4.029 0-9.192 1.576-11.265 4.588-.908 1.319-1.583 3.451.358 6.113.75 1.029 3.672 1.579 8.933 1.682.083 0 .508.008 1.157.008 3.8 0 10.359-.226 11.588-1.742 2.229-2.752 1.692-4.876.849-6.172zM4.775 26.291c-1.065-1.471-1.175-2.88-.296-4.157 1.446-2.102 5.498-3.688 9.425-3.688 3.613 0 8.26 1.24 9.754 3.539.792 1.218.545 2.635-.733 4.214-.321.313-3.607.967-9.659.967h-.147c-5.274-.017-8.037-.578-8.344-.875z"/>
    <path d="M13.336 6a.86.86 0 0 0 .665-.334c.177-.214.274-.499.273-.801l-.008-3.736C14.265.507 13.844 0 13.328 0h-.002a.86.86 0 0 0-.663.334 1.249 1.249 0 0 0-.273.801l.008 3.736C12.4 5.493 12.82 6 13.336 6z"/>
    <path d="M21.071 7.147h-.602c-.366-3.824-3.248-5.668-5.722-6.084l-.105-.018.005 1.903.013.003c2.215.449 3.627 2 3.91 4.196H8.036c.449-2.095 1.88-3.609 3.983-4.134L11 3l1.021-.194-.004-1.715-.112.023c-2.487.508-5.193 2.362-5.778 6.033h-.87a.94.94 0 0 0-.938.938.94.94 0 0 0 .938.938H7.06a6.926 6.926 0 0 0 .263 2.592c.53 1.803 1.78 3.21 3.518 3.96.834.36 1.75.551 2.649.551.967 0 1.908-.218 2.723-.632 2.477-1.257 3.535-4.029 3.36-6.471h1.499a.94.94 0 0 0 .938-.938.941.941 0 0 0-.939-.938zm-7.559 7.346c.232-.001.456-.041.681-.074-.225.033-.448.073-.681.074zm1.025-.114zm.827-.558a4.166 4.166 0 0 1-1.875.424 4.854 4.854 0 0 1-1.905-.392 4.296 4.296 0 0 1-2.463-2.767 5.01 5.01 0 0 1-.183-2.063h8.766c.159 1.632-.397 3.812-2.34 4.798z"/>
    <path d="M20.979 23.264h-4.261a1.02 1.02 0 1 1 0-2.042h4.261a1.02 1.02 0 1 1 0 2.042z"/>
</symbol></svg>